<?xml version="1.0" encoding="utf-8"?>

<!-- Xcache logo - 0.0.1 -->


<svg xmlns="http://www.w3.org/2000/svg" xmlns:inkscape="http://www.inkscape.org/namespaces/inkscape" xmlns:sodipodi="http://sodipodi.sourceforge.net/DTD/sodipodi-0.dtd" xmlns:xlink="http://www.w3.org/1999/xlink" xmlns:svg="http://www.w3.org/2000/svg" width="1024" height="1024" version="1.1" id="svg23" sodipodi:docname="xcache-logo-new.svg" inkscape:version="1.1.1 (3bf5ae0d25, 2021-09-20)">


<defs id="defs27">
    <linearGradient inkscape:collect="always" id="linearGradient7061">
      <stop style="stop-color:#ff8212;stop-opacity:1;" offset="0" id="stop7057"/>
      <stop style="stop-color:#ff2237;stop-opacity:1" offset="1" id="stop7059"/>
    </linearGradient>
    <linearGradient inkscape:collect="always" xlink:href="#linearGradient7061" id="linearGradient7063" x1="-5e-07" y1="512" x2="1024" y2="512" gradientUnits="userSpaceOnUse"/>
  </defs>


    <!--
    <sodipodi:namedview id="namedview25" pagecolor="#ffffff" bordercolor="#666666" borderopacity="1.0" inkscape:pageshadow="2" inkscape:pageopacity="0.0" inkscape:pagecheckerboard="0" showgrid="false" inkscape:zoom="0.57383373" inkscape:cx="260.52843" inkscape:cy="415.62562" inkscape:window-width="1920" inkscape:window-height="1018" inkscape:window-x="-8" inkscape:window-y="-8" inkscape:window-maximized="1" inkscape:current-layer="g21"/>
    -->

    <!-- Created with Method Draw - http://github.com/duopixel/Method-Draw/ -->
    <!--
    <g id="g6">
    <title id="title2">background</title>
    <g display="none" id="canvasGrid">
    <rect fill="url(#gridpattern)" stroke-width="0" y="0" x="0" height="100%" width="100%" id="svg_2"/>
    </g>
    </g>
    -->


  <g id="g21">
    <title id="title8">Layer 1</title>
    <rect id="svg_4" height="974" width="800" x="112" fill="#ffffff" stroke-width="50" stroke="#323232" y="25"/>
    <rect x="0" y="212" id="svg_1" height="600" width="1024" stroke-width="0" stroke="#000000" style="mix-blend-mode:normal;fill-opacity:1;stroke:#000000;stroke-opacity:1;fill:url(#linearGradient7063)"/>
    <path id="svg_9" d="M 406.18555 323.38477 L 335.30469 394.26562 L 429.34766 488.3125 L 500.23047 417.42969 L 406.18555 323.38477 z M 193.88281 535.6875 L 123 606.57031 L 217.04492 700.61523 L 287.92578 629.73438 L 193.88281 535.6875 z " style="fill:#ffffff;fill-opacity:1"/>
    <rect stroke="#000000" fill="#ffffff" stroke-width="0" x="-208.19279" y="382.38455" width="133" height="400" id="svg_10" transform="rotate(-45)"/>
    <rect fill="#323232" stroke-width="0" x="212" y="106.32729" width="600" height="50" id="svg_11" stroke="null"/>
    <rect fill="#323232" stroke-width="0" x="212" y="861.3199" width="600" height="50" id="svg_12" stroke="null"/>
    <path id="svg_27" d="M 712 312 A 200 200 0 0 0 512 512 A 200 200 0 0 0 712 712 A 200 200 0 0 0 904.68555 564.72656 L 796.85547 564.72656 A 100 100 0 0 1 712 612 A 100 100 0 0 1 612 512 A 100 100 0 0 1 712 412 A 100 100 0 0 1 796.93945 459.27344 L 904.86328 459.27344 A 200 200 0 0 0 712 312 z " style="fill:#ffffff;fill-opacity:1"/>
  </g>
</svg>
